<?xml version="1.0" encoding="utf-8"?>
<!-- Generator: Adobe Illustrator 23.0.6, SVG Export Plug-In . SVG Version: 6.00 Build 0)  -->
<svg version="1.1" id="Layer_1" xmlns="http://www.w3.org/2000/svg" xmlns:xlink="http://www.w3.org/1999/xlink" x="0px" y="0px"
	 viewBox="0 0 500 500" style="enable-background:new 0 0 500 500;" xml:space="preserve">
<style type="text/css">
	.st0{fill:url(#SVGID_1_);}
	.st1{fill:url(#SVGID_2_);}
	.st2{fill:url(#SVGID_3_);}
	.st3{fill:url(#SVGID_4_);}
	.st4{fill:url(#SVGID_5_);}
	.st5{fill:url(#SVGID_6_);}
	.st6{fill:url(#SVGID_7_);}
	.st7{fill:url(#SVGID_8_);}
	.st8{fill:url(#SVGID_9_);}
	.st9{fill:url(#SVGID_10_);}
	.st10{fill:url(#SVGID_11_);}
	.st11{fill:url(#SVGID_12_);}
	.st12{fill:#FFFFFF;}
</style>
<g>
	<g>
		<linearGradient id="SVGID_1_" gradientUnits="userSpaceOnUse" x1="31.2963" y1="36.5762" x2="392.4256" y2="402.1095">
			<stop  offset="9.093916e-04" style="stop-color:#159957"/>
			<stop  offset="0.2544" style="stop-color:#15955B"/>
			<stop  offset="0.4959" style="stop-color:#158A66"/>
			<stop  offset="0.7326" style="stop-color:#157779"/>
			<stop  offset="0.9651" style="stop-color:#155C94"/>
			<stop  offset="1" style="stop-color:#155799"/>
		</linearGradient>
		<path class="st0" d="M318.2,115.04c0.02-0.47,0.07-0.93,0.07-1.41c0-16.4-13.29-29.69-29.69-29.69
			c-16.4,0-29.69,13.29-29.69,29.69c0,3.17,0.51,6.21,1.42,9.08c0.06,0.85,0.1,1.7,0.1,2.56c0,19.72-15.99,35.7-35.7,35.7
			c-10.25,0-19.47-4.33-25.98-11.25c-7.94-13.85-22.85-23.18-39.95-23.18c-25.42,0-46.03,20.61-46.03,46.03
			c0,14.81,7.01,27.98,17.88,36.4c6.28,6.61,10.14,15.53,10.14,25.36c0,18.76-14.03,34.24-32.16,36.54
			c-1.53-0.24-3.09-0.41-4.69-0.41c-16.4,0-29.69,13.29-29.69,29.69c0,16.4,13.29,29.69,29.69,29.69c1.03,0,2.04-0.05,3.04-0.15
			c12.74,92.52,92.1,163.77,188.12,163.77c104.89,0,189.92-85.03,189.92-189.92C484.98,206.5,412.17,126.46,318.2,115.04z"/>
		<linearGradient id="SVGID_2_" gradientUnits="userSpaceOnUse" x1="-29.392" y1="96.5333" x2="331.7373" y2="462.0666">
			<stop  offset="9.093916e-04" style="stop-color:#159957"/>
			<stop  offset="0.2544" style="stop-color:#15955B"/>
			<stop  offset="0.4959" style="stop-color:#158A66"/>
			<stop  offset="0.7326" style="stop-color:#157779"/>
			<stop  offset="0.9651" style="stop-color:#155C94"/>
			<stop  offset="1" style="stop-color:#155799"/>
		</linearGradient>
		<circle class="st1" cx="107.7" cy="235.29" r="21.01"/>
		<linearGradient id="SVGID_3_" gradientUnits="userSpaceOnUse" x1="-47.672" y1="114.5931" x2="313.4573" y2="480.1264">
			<stop  offset="9.093916e-04" style="stop-color:#159957"/>
			<stop  offset="0.2544" style="stop-color:#15955B"/>
			<stop  offset="0.4959" style="stop-color:#158A66"/>
			<stop  offset="0.7326" style="stop-color:#157779"/>
			<stop  offset="0.9651" style="stop-color:#155C94"/>
			<stop  offset="1" style="stop-color:#155799"/>
		</linearGradient>
		<circle class="st2" cx="55.17" cy="218.69" r="16.6"/>
		<linearGradient id="SVGID_4_" gradientUnits="userSpaceOnUse" x1="145.6735" y1="-76.423" x2="506.8028" y2="289.1104">
			<stop  offset="9.093916e-04" style="stop-color:#159957"/>
			<stop  offset="0.2544" style="stop-color:#15955B"/>
			<stop  offset="0.4959" style="stop-color:#158A66"/>
			<stop  offset="0.7326" style="stop-color:#157779"/>
			<stop  offset="0.9651" style="stop-color:#155C94"/>
			<stop  offset="1" style="stop-color:#155799"/>
		</linearGradient>
		<circle class="st3" cx="275.93" cy="55.42" r="16.6"/>
		<linearGradient id="SVGID_5_" gradientUnits="userSpaceOnUse" x1="36.8933" y1="31.0466" x2="398.0226" y2="396.58">
			<stop  offset="9.093916e-04" style="stop-color:#159957"/>
			<stop  offset="0.2544" style="stop-color:#15955B"/>
			<stop  offset="0.4959" style="stop-color:#158A66"/>
			<stop  offset="0.7326" style="stop-color:#157779"/>
			<stop  offset="0.9651" style="stop-color:#155C94"/>
			<stop  offset="1" style="stop-color:#155799"/>
		</linearGradient>
		<circle class="st4" cx="105.56" cy="100.55" r="16.6"/>
		<linearGradient id="SVGID_6_" gradientUnits="userSpaceOnUse" x1="-2.5932" y1="70.0574" x2="358.5361" y2="435.5907">
			<stop  offset="9.093916e-04" style="stop-color:#159957"/>
			<stop  offset="0.2544" style="stop-color:#15955B"/>
			<stop  offset="0.4959" style="stop-color:#158A66"/>
			<stop  offset="0.7326" style="stop-color:#157779"/>
			<stop  offset="0.9651" style="stop-color:#155C94"/>
			<stop  offset="1" style="stop-color:#155799"/>
		</linearGradient>
		<circle class="st5" cx="74.65" cy="148.25" r="11.09"/>
		<linearGradient id="SVGID_7_" gradientUnits="userSpaceOnUse" x1="-6.0609" y1="73.4834" x2="355.0684" y2="439.0167">
			<stop  offset="9.093916e-04" style="stop-color:#159957"/>
			<stop  offset="0.2544" style="stop-color:#15955B"/>
			<stop  offset="0.4959" style="stop-color:#158A66"/>
			<stop  offset="0.7326" style="stop-color:#157779"/>
			<stop  offset="0.9651" style="stop-color:#155C94"/>
			<stop  offset="1" style="stop-color:#155799"/>
		</linearGradient>
		<circle class="st6" cx="25.13" cy="105.05" r="11.09"/>
		<linearGradient id="SVGID_8_" gradientUnits="userSpaceOnUse" x1="84.2234" y1="-15.7132" x2="445.3527" y2="349.8201">
			<stop  offset="9.093916e-04" style="stop-color:#159957"/>
			<stop  offset="0.2544" style="stop-color:#15955B"/>
			<stop  offset="0.4959" style="stop-color:#158A66"/>
			<stop  offset="0.7326" style="stop-color:#157779"/>
			<stop  offset="0.9651" style="stop-color:#155C94"/>
			<stop  offset="1" style="stop-color:#155799"/>
		</linearGradient>
		<circle class="st7" cx="182.68" cy="83.95" r="11.09"/>
		<linearGradient id="SVGID_9_" gradientUnits="userSpaceOnUse" x1="56.2065" y1="11.9662" x2="417.3358" y2="377.4995">
			<stop  offset="9.093916e-04" style="stop-color:#159957"/>
			<stop  offset="0.2544" style="stop-color:#15955B"/>
			<stop  offset="0.4959" style="stop-color:#158A66"/>
			<stop  offset="0.7326" style="stop-color:#157779"/>
			<stop  offset="0.9651" style="stop-color:#155C94"/>
			<stop  offset="1" style="stop-color:#155799"/>
		</linearGradient>
		<circle class="st8" cx="71.77" cy="27.72" r="11.09"/>
		<linearGradient id="SVGID_10_" gradientUnits="userSpaceOnUse" x1="131.7956" y1="-62.7123" x2="492.9249" y2="302.8211">
			<stop  offset="9.093916e-04" style="stop-color:#159957"/>
			<stop  offset="0.2544" style="stop-color:#15955B"/>
			<stop  offset="0.4959" style="stop-color:#158A66"/>
			<stop  offset="0.7326" style="stop-color:#157779"/>
			<stop  offset="0.9651" style="stop-color:#155C94"/>
			<stop  offset="1" style="stop-color:#155799"/>
		</linearGradient>
		<circle class="st9" cx="210.18" cy="16.63" r="11.09"/>
		<linearGradient id="SVGID_11_" gradientUnits="userSpaceOnUse" x1="88.6616" y1="-20.098" x2="449.7909" y2="345.4354">
			<stop  offset="9.093916e-04" style="stop-color:#159957"/>
			<stop  offset="0.2544" style="stop-color:#15955B"/>
			<stop  offset="0.4959" style="stop-color:#158A66"/>
			<stop  offset="0.7326" style="stop-color:#157779"/>
			<stop  offset="0.9651" style="stop-color:#155C94"/>
			<stop  offset="1" style="stop-color:#155799"/>
		</linearGradient>
		<circle class="st10" cx="146.87" cy="38.82" r="11.09"/>
		<linearGradient id="SVGID_12_" gradientUnits="userSpaceOnUse" x1="85.1387" y1="-16.6175" x2="446.268" y2="348.9158">
			<stop  offset="9.093916e-04" style="stop-color:#159957"/>
			<stop  offset="0.2544" style="stop-color:#15955B"/>
			<stop  offset="0.4959" style="stop-color:#158A66"/>
			<stop  offset="0.7326" style="stop-color:#157779"/>
			<stop  offset="0.9651" style="stop-color:#155C94"/>
			<stop  offset="1" style="stop-color:#155799"/>
		</linearGradient>
		<circle class="st11" cx="226.1" cy="126.06" r="21.01"/>
	</g>
	<path class="st12" d="M368.53,396.69c-8.32-14.09-22.35-20.61-38.12-22.52c-16.44-2-33.59,0.44-49.66-4.1
		c-8.34-2.35-16.36-6.18-23.07-11.71c-7.07-5.83-11.25-13.5-16.13-21.08c-0.27-0.42-1.61-3.13-2.21-3.13l-1.29,0l0.04-0.06
		c3.36,0,20.48,0,32.76,0c61.08,1.14,59.19-52.36,59.19-52.36s-77.27,0-90.94,0l-0.01-0.01c0.61-0.08,1.92-2.7,2.18-3.12
		c4.88-7.58,9.06-15.26,16.13-21.08c6.71-5.53,14.73-9.35,23.07-11.71c16.07-4.53,33.21-2.1,49.66-4.1
		c15.77-1.91,29.8-8.43,38.12-22.52c0.91-1.53,8.69-28.14,8.69-28.14c-0.1,0-50.71,0-65.87,0c-31.25-0.83-63.71,5.56-88.39,25.8
		c-20.56,16.86-33.18,40.02-38.2,64.92h0.4l-0.39,0.34l0-0.34c-0.03,0.14-0.04,0.27-0.07,0.41l-0.01,0.01l0,0.05
		c-3.37,17-3.21,34.79,0.36,51.92l0-0.1l0.01,0.04h-0.01c0.01,0.05,0.02,0.1,0.03,0.15l0.02,0.12l0.01,0
		c5.07,24.79,17.66,47.85,38.14,64.64c24.69,20.24,57.15,26.63,88.39,25.8c15.16,0,65.77,0,65.87,0
		C377.22,424.83,369.44,398.22,368.53,396.69z"/>
</g>
</svg>
